<?xml version="1.0" encoding="UTF-8" standalone="yes"?>
<!DOCTYPE svg PUBLIC "-//W3C//DTD SVG 1.1//EN" "http://www.w3.org/Graphics/SVG/1.1/DTD/svg11.dtd">

<svg width="500" height="500" viewBox="0 0 500 500" xmlns="http://www.w3.org/2000/svg" xmlns:xlink="http://www.w3.org/1999/xlink" version="1.1" baseProfile="full">
    <g transform="scale(1,-1) translate(0,-500)">
        <path d="M 21.000000 1.000000 L 480.964569 1.000000 C 492.010264 1.000000 500.964569 9.954306 500.964569 21.000001 L 500.964569 480.999999 C 500.964569 492.045694 492.010264 501.000000 480.964569 501.000000 L 21.000000 501.000000 C 9.954305 501.000000 1.000000 492.045694 1.000000 480.999999 L 1.000000 21.000001 C 1.000000 9.954306 9.954305 1.000000 21.000000 1.000000 Z" transform="scale(1.000000,1.000000) translate(-0.964560,-1.000000)" fill="#000000" opacity="1.000000"></path>
        <path d="M 61.000000 31.000000 C 61.000000 47.568542 47.568542 61.000000 31.000000 61.000000 C 14.431458 61.000000 1.000000 47.568542 1.000000 31.000000 C 1.000000 14.431458 14.431458 1.000000 31.000000 1.000000 C 47.568542 1.000000 61.000000 14.431458 61.000000 31.000000 Z" transform="scale(1.000000,1.000000) translate(219.000000,308.485229)" fill="#ffffff" opacity="1.000000"></path>
        <path d="M 1.000000 190.194082 C 147.857628 190.194082 135.721617 42.093360 89.333089 1.000000 C 89.333089 9.815271 90.914768 17.538521 91.310696 25.061268 C 92.696442 51.390865 85.068409 83.303750 68.106772 104.034997 C 39.939870 138.461745 1.000000 139.233675 1.000000 190.194082 Z" transform="scale(1.000000,1.000000) translate(125.069996,129.514773)" fill="#ffffff" opacity="1.000000"></path>
        <path d="M 100.539526 206.015189 L 124.270804 206.015189 C 124.270804 205.530205 124.193116 205.763272 124.930006 205.355977 C 124.930006 158.014995 92.882048 152.964737 69.029631 123.811342 C 47.517321 97.518062 55.420206 57.956076 24.731278 20.446778 C 18.299482 12.585567 9.689562 7.821018 1.000000 1.000000 C 24.635541 49.590274 7.280413 77.151339 9.569628 120.647128 C 12.052340 167.819421 51.389201 205.355977 100.539526 206.015189 Z" transform="scale(1.000000,1.000000) translate(249.000002,133.470050)" fill="#ffffff" opacity="1.000000"></path>
    </g>
</svg>