<?xml version="1.0" encoding="UTF-8" standalone="yes"?>
<!DOCTYPE svg PUBLIC "-//W3C//DTD SVG 1.1//EN" "http://www.w3.org/Graphics/SVG/1.1/DTD/svg11.dtd">

<svg width="500" height="200" viewBox="0 0 500 200" xmlns="http://www.w3.org/2000/svg" xmlns:xlink="http://www.w3.org/1999/xlink" version="1.1" baseProfile="full">
    <g transform="scale(1,-1) translate(0,-200)">
        <path d="M 73.416047 97.980000 L 73.416047 37.010000 Q 73.416047 29.470000 70.491047 22.905000 Q 67.566047 16.340000 62.691047 11.465000 Q 57.816047 6.590000 51.251047 3.795000 Q 44.686047 1.000000 37.276047 1.000000 L 36.886047 1.000000 Q 29.476047 1.130000 22.976047 3.925000 Q 16.476047 6.720000 11.276047 11.920000 Q 6.206047 17.120000 3.541047 23.685000 Q 0.876047 30.250000 1.006047 37.660000 L 22.976047 37.400000 Q 22.976047 31.550000 27.006047 27.260000 Q 31.296047 22.970000 37.146047 22.970000 Q 40.006047 22.970000 42.606047 24.010000 Q 45.206047 25.050000 47.156047 27.000000 Q 49.106047 28.950000 50.276047 31.550000 Q 51.446047 34.150000 51.446047 37.140000 L 51.446047 97.980000 Z M 122.686047 1.000000 Q 115.406047 1.000000 108.906047 3.665000 Q 102.406047 6.330000 97.336047 11.270000 Q 92.136047 16.470000 89.341047 22.970000 Q 86.546047 29.470000 86.416047 36.880000 L 86.416047 96.550000 L 108.386047 96.550000 L 108.386047 37.010000 Q 108.386047 31.290000 112.676047 27.000000 Q 116.966047 22.970000 122.816047 22.970000 Q 125.676047 22.970000 128.276047 24.140000 Q 130.876047 25.310000 132.826047 27.260000 Q 134.776047 29.210000 135.816047 31.810000 Q 136.856047 34.410000 136.856047 37.400000 L 136.856047 96.550000 L 158.826047 96.550000 L 158.826047 37.530000 Q 158.956047 30.120000 156.161047 23.490000 Q 153.366047 16.860000 148.491047 11.920000 Q 143.616047 6.980000 137.051047 4.055000 Q 130.486047 1.130000 123.076047 1.000000 Z M 235.656047 96.550000 L 258.276047 96.550000 L 263.866047 1.000000 L 241.896047 1.000000 L 239.556047 40.000000 L 226.296047 1.000000 L 204.326047 1.000000 L 190.286047 41.560000 L 187.686047 1.000000 L 165.586047 1.000000 L 171.696047 96.550000 L 194.316047 96.550000 L 215.246047 36.750000 Z M 321.846047 58.460000 Q 327.956047 53.910000 331.466047 47.475000 Q 334.976047 41.040000 334.976047 33.500000 Q 334.976047 26.740000 332.116047 20.825000 Q 329.256047 14.910000 324.251047 10.490000 Q 319.246047 6.070000 312.616047 3.535000 Q 305.986047 1.000000 298.446047 1.000000 L 270.496047 1.000000 L 270.496047 96.810000 L 295.846047 96.680000 Q 301.826047 96.680000 307.156047 94.600000 Q 312.486047 92.520000 316.516047 88.945000 Q 320.546047 85.370000 322.821047 80.625000 Q 325.096047 75.880000 325.096047 70.420000 Q 325.096047 63.920000 321.846047 58.460000 Z M 292.466047 74.710000 L 292.466047 66.000000 L 295.976047 66.000000 Q 299.226047 66.130000 301.176047 67.560000 Q 303.126047 68.990000 303.126047 70.420000 Q 303.126047 71.720000 301.176047 73.215000 Q 299.226047 74.710000 295.846047 74.710000 Z M 298.446047 23.100000 Q 301.306047 23.100000 303.971047 23.945000 Q 306.636047 24.790000 308.651047 26.220000 Q 310.666047 27.650000 311.836047 29.535000 Q 313.006047 31.420000 313.006047 33.500000 Q 313.006047 35.580000 311.836047 37.530000 Q 310.666047 39.480000 308.651047 40.910000 Q 306.636047 42.340000 303.971047 43.185000 Q 301.306047 44.030000 298.446047 44.030000 L 296.106047 44.030000 L 295.846047 44.030000 L 292.466047 44.030000 L 292.466047 23.100000 Z M 384.116047 96.550000 Q 393.996047 96.550000 402.706047 92.780000 Q 411.416047 89.010000 417.916047 82.575000 Q 424.416047 76.140000 428.186047 67.430000 Q 431.956047 58.720000 431.956047 48.840000 Q 431.956047 38.960000 428.186047 30.250000 Q 424.416047 21.540000 417.916047 15.105000 Q 411.416047 8.670000 402.706047 4.900000 Q 393.996047 1.130000 384.116047 1.130000 Q 374.236047 1.130000 365.526047 4.900000 Q 356.816047 8.670000 350.381047 15.105000 Q 343.946047 21.540000 340.176047 30.250000 Q 336.406047 38.960000 336.406047 48.840000 Q 336.406047 58.720000 340.176047 67.430000 Q 343.946047 76.140000 350.381047 82.575000 Q 356.816047 89.010000 365.526047 92.780000 Q 374.236047 96.550000 384.116047 96.550000 Z M 384.116047 23.100000 Q 389.446047 23.100000 394.126047 25.115000 Q 398.806047 27.130000 402.316047 30.640000 Q 405.826047 34.150000 407.841047 38.830000 Q 409.856047 43.510000 409.856047 48.840000 Q 409.856047 54.170000 407.841047 58.850000 Q 405.826047 63.530000 402.316047 67.040000 Q 398.806047 70.550000 394.126047 72.565000 Q 389.446047 74.580000 384.116047 74.580000 Q 378.786047 74.580000 374.106047 72.565000 Q 369.426047 70.550000 365.916047 67.040000 Q 362.406047 63.530000 360.391047 58.850000 Q 358.376047 54.170000 358.376047 48.840000 Q 358.376047 43.510000 360.391047 38.830000 Q 362.406047 34.150000 365.916047 30.640000 Q 369.426047 27.130000 374.106047 25.115000 Q 378.786047 23.100000 384.116047 23.100000 Z" transform="scale(1.000000,1.000000) translate(33.521977,50.510000)" fill="#ffffff" opacity="1.000000"></path>
    </g>
</svg>